<svg xmlns="http://www.w3.org/2000/svg" viewBox="0 0 900 520" role="img" aria-label="ShoutOut logo">
  <defs>
    <linearGradient id="bubble" x1="0" x2="1" y1="0" y2="1">
      <stop offset="0" stop-color="#f43abf"/>
      <stop offset=".48" stop-color="#7e7cff"/>
      <stop offset="1" stop-color="#26d8ff"/>
    </linearGradient>
    <linearGradient id="text" x1="0" x2="1">
      <stop offset="0" stop-color="#ffffff"/>
      <stop offset=".55" stop-color="#eaf2ff"/>
      <stop offset="1" stop-color="#26d8ff"/>
    </linearGradient>
    <filter id="glow" x="-30%" y="-30%" width="160%" height="160%">
      <feGaussianBlur stdDeviation="10" result="blur"/>
      <feColorMatrix in="blur" type="matrix" values="0 0 0 0 0.95 0 0 0 0 0.14 0 0 0 0 0.78 0 0 0 .85 0"/>
      <feMerge>
        <feMergeNode/>
        <feMergeNode in="SourceGraphic"/>
      </feMerge>
    </filter>
  </defs>
  <rect width="900" height="520" rx="64" fill="#07101c"/>
  <path d="M126 94h568c80 0 136 55 136 128v74c0 74-56 128-136 128H438L295 493l30-69H126C48 424 0 370 0 296v-74C0 149 48 94 126 94Z" fill="#0b1028" stroke="url(#bubble)" stroke-width="18" filter="url(#glow)"/>
  <path d="M742 48c20 18 32 43 32 70 0 58-47 106-106 106-28 0-54-11-73-29" fill="none" stroke="#26d8ff" stroke-width="18" stroke-linecap="round"/>
  <path d="M674 61l75 75M749 61l-75 75" stroke="#f43abf" stroke-width="16" stroke-linecap="round"/>
  <text x="450" y="235" text-anchor="middle" font-family="Arial Black, Impact, Arial, sans-serif" font-size="112" font-weight="900" fill="url(#text)" letter-spacing="2">SHOUT</text>
  <text x="450" y="350" text-anchor="middle" font-family="Arial Black, Impact, Arial, sans-serif" font-size="112" font-weight="900" fill="#26d8ff" letter-spacing="2">OUT</text>
</svg>
